# Blender 4.4.1
# www.blender.org
mtllib bullet.mtl
o bullet
v 0.000000 0.100000 0.150000
v 0.000000 0.030213 -0.249397
v -0.019509 0.098079 0.150000
v -0.005894 0.029633 -0.249397
v -0.038268 0.092388 0.150000
v -0.011562 0.027913 -0.249397
v -0.055557 0.083147 0.150000
v -0.016786 0.025121 -0.249397
v -0.070711 0.070711 0.150000
v -0.021364 0.021364 -0.249397
v -0.083147 0.055557 0.150000
v -0.025121 0.016786 -0.249397
v -0.092388 0.038268 0.150000
v -0.027913 0.011562 -0.249397
v -0.098079 0.019509 0.150000
v -0.029633 0.005894 -0.249397
v -0.100000 0.000000 0.150000
v -0.030213 -0.000000 -0.249397
v -0.098079 -0.019509 0.150000
v -0.029633 -0.005894 -0.249397
v -0.092388 -0.038268 0.150000
v -0.027913 -0.011562 -0.249397
v -0.083147 -0.055557 0.150000
v -0.025121 -0.016786 -0.249397
v -0.070711 -0.070711 0.150000
v -0.021364 -0.021364 -0.249397
v -0.055557 -0.083147 0.150000
v -0.016786 -0.025121 -0.249397
v -0.038268 -0.092388 0.150000
v -0.011562 -0.027913 -0.249397
v -0.019509 -0.098079 0.150000
v -0.005894 -0.029633 -0.249397
v 0.000000 -0.100000 0.150000
v 0.000000 -0.030213 -0.249397
v 0.019509 -0.098079 0.150000
v 0.005894 -0.029633 -0.249397
v 0.038268 -0.092388 0.150000
v 0.011562 -0.027913 -0.249397
v 0.055557 -0.083147 0.150000
v 0.016786 -0.025121 -0.249397
v 0.070711 -0.070711 0.150000
v 0.021364 -0.021364 -0.249397
v 0.083147 -0.055557 0.150000
v 0.025121 -0.016786 -0.249397
v 0.092388 -0.038268 0.150000
v 0.027913 -0.011562 -0.249397
v 0.098079 -0.019509 0.150000
v 0.029633 -0.005894 -0.249397
v 0.100000 0.000000 0.150000
v 0.030213 -0.000000 -0.249397
v 0.098079 0.019509 0.150000
v 0.029633 0.005894 -0.249397
v 0.092388 0.038268 0.150000
v 0.027913 0.011562 -0.249397
v 0.083147 0.055557 0.150000
v 0.025121 0.016786 -0.249397
v 0.070711 0.070711 0.150000
v 0.021364 0.021364 -0.249397
v 0.055557 0.083147 0.150000
v 0.016786 0.025121 -0.249397
v 0.038268 0.092388 0.150000
v 0.011562 0.027913 -0.249397
v 0.019509 0.098079 0.150000
v 0.005894 0.029633 -0.249397
v -0.019509 0.098079 -0.150000
v 0.000000 0.100000 -0.150000
v -0.038268 0.092388 -0.150000
v -0.055557 0.083147 -0.150000
v -0.070711 0.070711 -0.150000
v -0.083147 0.055557 -0.150000
v -0.092388 0.038268 -0.150000
v -0.098079 0.019509 -0.150000
v -0.100000 -0.000000 -0.150000
v -0.098079 -0.019509 -0.150000
v -0.092388 -0.038268 -0.150000
v -0.083147 -0.055557 -0.150000
v -0.070711 -0.070711 -0.150000
v -0.055557 -0.083147 -0.150000
v -0.038268 -0.092388 -0.150000
v -0.019509 -0.098079 -0.150000
v 0.000000 -0.100000 -0.150000
v 0.019509 -0.098079 -0.150000
v 0.038268 -0.092388 -0.150000
v 0.055557 -0.083147 -0.150000
v 0.070711 -0.070711 -0.150000
v 0.083147 -0.055557 -0.150000
v 0.092388 -0.038268 -0.150000
v 0.098079 -0.019509 -0.150000
v 0.100000 -0.000000 -0.150000
v 0.098079 0.019509 -0.150000
v 0.092388 0.038268 -0.150000
v 0.083147 0.055557 -0.150000
v 0.070711 0.070711 -0.150000
v 0.055557 0.083147 -0.150000
v 0.038268 0.092388 -0.150000
v 0.019509 0.098079 -0.150000
vn -0.0980 0.9952 -0.0000
vn -0.2903 0.9569 -0.0000
vn -0.4714 0.8819 -0.0000
vn -0.6344 0.7730 -0.0000
vn -0.7730 0.6344 -0.0000
vn -0.8819 0.4714 -0.0000
vn -0.9569 0.2903 -0.0000
vn -0.9952 0.0980 -0.0000
vn -0.9952 -0.0980 -0.0000
vn -0.9569 -0.2903 -0.0000
vn -0.8819 -0.4714 -0.0000
vn -0.7730 -0.6344 -0.0000
vn -0.6344 -0.7730 -0.0000
vn -0.4714 -0.8819 -0.0000
vn -0.2903 -0.9569 -0.0000
vn -0.0980 -0.9952 -0.0000
vn 0.0980 -0.9952 -0.0000
vn 0.2903 -0.9569 -0.0000
vn 0.4714 -0.8819 -0.0000
vn 0.6344 -0.7730 -0.0000
vn 0.7730 -0.6344 -0.0000
vn 0.8819 -0.4714 -0.0000
vn 0.9569 -0.2903 -0.0000
vn 0.9952 -0.0980 -0.0000
vn 0.9952 0.0980 -0.0000
vn 0.9569 0.2903 -0.0000
vn 0.8819 0.4714 -0.0000
vn 0.7730 0.6344 -0.0000
vn 0.6344 0.7730 -0.0000
vn 0.4714 0.8819 -0.0000
vn -0.0000 -0.0000 -1.0000
vn 0.2903 0.9569 -0.0000
vn 0.0980 0.9952 -0.0000
vn -0.0000 -0.0000 1.0000
vn -0.0803 0.8158 -0.5728
vn -0.2380 0.7844 -0.5728
vn -0.3864 0.7229 -0.5728
vn -0.5200 0.6337 -0.5728
vn -0.6337 0.5200 -0.5728
vn -0.7229 0.3864 -0.5728
vn -0.7844 0.2380 -0.5728
vn -0.8158 0.0803 -0.5728
vn -0.8158 -0.0803 -0.5728
vn -0.7844 -0.2380 -0.5728
vn -0.7229 -0.3864 -0.5728
vn -0.6337 -0.5200 -0.5728
vn -0.5200 -0.6337 -0.5728
vn -0.3864 -0.7229 -0.5728
vn -0.2380 -0.7844 -0.5728
vn -0.0803 -0.8158 -0.5728
vn 0.0803 -0.8158 -0.5728
vn 0.2380 -0.7844 -0.5728
vn 0.3864 -0.7229 -0.5728
vn 0.5200 -0.6337 -0.5728
vn 0.6337 -0.5200 -0.5728
vn 0.7229 -0.3864 -0.5728
vn 0.7844 -0.2380 -0.5728
vn 0.8158 -0.0803 -0.5728
vn 0.8158 0.0803 -0.5728
vn 0.7844 0.2380 -0.5728
vn 0.7229 0.3864 -0.5728
vn 0.6337 0.5200 -0.5728
vn 0.5200 0.6337 -0.5728
vn 0.3864 0.7229 -0.5728
vn 0.2380 0.7844 -0.5728
vn 0.0803 0.8158 -0.5728
vn -0.0001 -0.0000 -1.0000
vn 0.0001 -0.0000 -1.0000
vt 0.338956 0.055564
vt 0.055564 0.083342
vt 0.055564 0.055564
vt 0.338956 0.083342
vt 0.055564 0.111119
vt 0.338956 0.111119
vt 0.055564 0.138896
vt 0.338956 0.138896
vt 0.055564 0.166673
vt 0.338956 0.166673
vt 0.055564 0.194451
vt 0.338956 0.194450
vt 0.055564 0.222228
vt 0.338956 0.222228
vt 0.055564 0.250005
vt 0.338956 0.250005
vt 0.055564 0.277782
vt 0.338956 0.277782
vt 0.055564 0.305559
vt 0.338956 0.305559
vt 0.055564 0.333337
vt 0.338956 0.333337
vt 0.055564 0.361114
vt 0.338956 0.361114
vt 0.055564 0.388891
vt 0.338956 0.388891
vt 0.055564 0.416668
vt 0.338956 0.416668
vt 0.055564 0.444446
vt 0.338956 0.444446
vt 0.055564 0.472223
vt 0.338956 0.472223
vt 0.055564 0.500000
vt 0.338956 0.500000
vt 0.055564 0.527777
vt 0.338956 0.527777
vt 0.055564 0.555554
vt 0.338956 0.555554
vt 0.055564 0.583332
vt 0.338956 0.583332
vt 0.055564 0.611109
vt 0.338956 0.611109
vt 0.055564 0.638886
vt 0.338956 0.638886
vt 0.055564 0.666663
vt 0.338956 0.666663
vt 0.055564 0.694441
vt 0.338956 0.694441
vt 0.055564 0.722218
vt 0.338956 0.722218
vt 0.055564 0.749995
vt 0.338956 0.749995
vt 0.055564 0.777772
vt 0.338956 0.777772
vt 0.055564 0.805550
vt 0.338956 0.805549
vt 0.055564 0.833327
vt 0.338956 0.833327
vt 0.055564 0.861104
vt 0.338956 0.861104
vt 0.055564 0.888881
vt 0.610534 0.182133
vt 0.650591 0.216089
vt 0.617057 0.256408
vt 0.338956 0.888881
vt 0.055564 0.916658
vt 0.338956 0.916658
vt 0.055564 0.944436
vt 0.732111 0.621198
vt 0.604987 0.776100
vt 0.450085 0.648975
vt 0.609763 0.256344
vt 0.565829 0.376531
vt 0.602628 0.254862
vt 0.597306 0.382899
vt 0.624224 0.255044
vt 0.629487 0.382944
vt 0.630970 0.252304
vt 0.661100 0.376785
vt 0.637052 0.248310
vt 0.690922 0.364476
vt 0.642228 0.243194
vt 0.717703 0.346633
vt 0.646305 0.237180
vt 0.740566 0.323948
vt 0.649117 0.230494
vt 0.758658 0.297104
vt 0.777436 0.235406
vt 0.771108 0.267152
vt 0.650566 0.223373
vt 0.649313 0.208921
vt 0.777436 0.203095
vt 0.646650 0.202144
vt 0.771130 0.171421
vt 0.642718 0.196016
vt 0.758768 0.141604
vt 0.637657 0.190781
vt 0.740834 0.114788
vt 0.631665 0.186632
vt 0.718025 0.092003
vt 0.624972 0.183741
vt 0.691227 0.074122
vt 0.629952 0.055564
vt 0.661484 0.061823
vt 0.617837 0.182221
vt 0.566314 0.061732
vt 0.597852 0.055565
vt 0.596566 0.186378
vt 0.603330 0.183565
vt 0.509592 0.091962
vt 0.536460 0.074004
vt 0.590476 0.190336
vt 0.486796 0.114763
vt 0.585276 0.195421
vt 0.468810 0.141549
vt 0.578375 0.208172
vt 0.581191 0.201460
vt 0.576926 0.215320
vt 0.456445 0.171404
vt 0.576928 0.222596
vt 0.450162 0.203015
vt 0.578215 0.229758
vt 0.450085 0.235272
vt 0.580885 0.236529
vt 0.456375 0.266992
vt 0.486661 0.323642
vt 0.468733 0.296831
vt 0.589917 0.247869
vt 0.584836 0.242645
vt 0.536184 0.364251
vt 0.509446 0.346400
vt 0.595922 0.251995
vt 0.338956 0.944436
vt 0.450085 0.621198
vt 0.455504 0.593954
vt 0.466134 0.568292
vt 0.481566 0.545196
vt 0.501207 0.525554
vt 0.524303 0.510122
vt 0.549966 0.499492
vt 0.577209 0.494073
vt 0.604987 0.494073
vt 0.632230 0.499492
vt 0.657893 0.510122
vt 0.680989 0.525554
vt 0.700630 0.545196
vt 0.716062 0.568292
vt 0.726692 0.593954
vt 0.732111 0.648975
vt 0.726692 0.676219
vt 0.716062 0.701881
vt 0.700630 0.724977
vt 0.680989 0.744619
vt 0.657893 0.760051
vt 0.632230 0.770681
vt 0.577209 0.776100
vt 0.549966 0.770681
vt 0.524303 0.760051
vt 0.501207 0.744619
vt 0.481566 0.724977
vt 0.466134 0.701881
vt 0.455504 0.676219
s 0
usemtl マテリアル
f 66/1/1 3/2/1 1/3/1
f 65/4/2 5/5/2 3/2/2
f 67/6/3 7/7/3 5/5/3
f 68/8/4 9/9/4 7/7/4
f 69/10/5 11/11/5 9/9/5
f 70/12/6 13/13/6 11/11/6
f 71/14/7 15/15/7 13/13/7
f 72/16/8 17/17/8 15/15/8
f 73/18/9 19/19/9 17/17/9
f 74/20/10 21/21/10 19/19/10
f 75/22/11 23/23/11 21/21/11
f 76/24/12 25/25/12 23/23/12
f 77/26/13 27/27/13 25/25/13
f 78/28/14 29/29/14 27/27/14
f 79/30/15 31/31/15 29/29/15
f 80/32/16 33/33/16 31/31/16
f 81/34/17 35/35/17 33/33/17
f 82/36/18 37/37/18 35/35/18
f 83/38/19 39/39/19 37/37/19
f 84/40/20 41/41/20 39/39/20
f 85/42/21 43/43/21 41/41/21
f 86/44/22 45/45/22 43/43/22
f 87/46/23 47/47/23 45/45/23
f 88/48/24 49/49/24 47/47/24
f 89/50/25 51/51/25 49/49/25
f 90/52/26 53/53/26 51/51/26
f 91/54/27 55/55/27 53/53/27
f 92/56/28 57/57/28 55/55/28
f 93/58/29 59/59/29 57/57/29
f 94/60/30 61/61/30 59/59/30
f 38/62/31 22/63/31 6/64/31
f 95/65/32 63/66/32 61/61/32
f 96/67/33 1/68/33 63/66/33
f 31/69/34 47/70/34 63/71/34
f 4/72/35 66/73/35 2/74/35
f 6/64/36 65/75/36 4/72/36
f 8/76/37 67/77/37 6/64/37
f 10/78/38 68/79/38 8/76/38
f 12/80/39 69/81/39 10/78/39
f 14/82/40 70/83/40 12/80/40
f 16/84/41 71/85/41 14/82/41
f 18/86/42 72/87/42 16/84/42
f 18/86/43 74/88/43 73/89/43
f 22/63/44 74/88/44 20/90/44
f 24/91/45 75/92/45 22/63/45
f 26/93/46 76/94/46 24/91/46
f 28/95/47 77/96/47 26/93/47
f 30/97/48 78/98/48 28/95/48
f 32/99/49 79/100/49 30/97/49
f 34/101/50 80/102/50 32/99/50
f 34/101/51 82/103/51 81/104/51
f 38/62/52 82/103/52 36/105/52
f 38/62/53 84/106/53 83/107/53
f 42/108/54 84/106/54 40/109/54
f 42/108/55 86/110/55 85/111/55
f 44/112/56 87/113/56 86/110/56
f 46/114/57 88/115/57 87/113/57
f 50/116/58 88/115/58 48/117/58
f 52/118/59 89/119/59 50/116/59
f 54/120/60 90/121/60 52/118/60
f 56/122/61 91/123/61 54/120/61
f 58/124/62 92/125/62 56/122/62
f 58/124/63 94/126/63 93/127/63
f 62/128/64 94/126/64 60/129/64
f 62/128/65 96/130/65 95/131/65
f 2/74/66 96/130/66 64/132/66
f 66/1/1 65/4/1 3/2/1
f 65/4/2 67/6/2 5/5/2
f 67/6/3 68/8/3 7/7/3
f 68/8/4 69/10/4 9/9/4
f 69/10/5 70/12/5 11/11/5
f 70/12/6 71/14/6 13/13/6
f 71/14/7 72/16/7 15/15/7
f 72/16/8 73/18/8 17/17/8
f 73/18/9 74/20/9 19/19/9
f 74/20/10 75/22/10 21/21/10
f 75/22/11 76/24/11 23/23/11
f 76/24/12 77/26/12 25/25/12
f 77/26/13 78/28/13 27/27/13
f 78/28/14 79/30/14 29/29/14
f 79/30/15 80/32/15 31/31/15
f 80/32/16 81/34/16 33/33/16
f 81/34/17 82/36/17 35/35/17
f 82/36/18 83/38/18 37/37/18
f 83/38/19 84/40/19 39/39/19
f 84/40/20 85/42/20 41/41/20
f 85/42/21 86/44/21 43/43/21
f 86/44/22 87/46/22 45/45/22
f 87/46/23 88/48/23 47/47/23
f 88/48/24 89/50/24 49/49/24
f 89/50/25 90/52/25 51/51/25
f 90/52/26 91/54/26 53/53/26
f 91/54/27 92/56/27 55/55/27
f 92/56/28 93/58/28 57/57/28
f 93/58/29 94/60/29 59/59/29
f 94/60/30 95/65/30 61/61/30
f 6/64/31 4/72/31 2/74/31
f 2/74/31 64/132/31 62/128/31
f 62/128/31 60/129/31 58/124/31
f 58/124/31 56/122/31 54/120/31
f 54/120/67 52/118/67 50/116/67
f 50/116/31 48/117/31 46/114/31
f 46/114/31 44/112/31 42/108/31
f 42/108/31 40/109/31 38/62/31
f 38/62/31 36/105/31 34/101/31
f 34/101/31 32/99/31 30/97/31
f 30/97/31 28/95/31 26/93/31
f 26/93/31 24/91/31 22/63/31
f 22/63/31 20/90/31 18/86/31
f 18/86/68 16/84/68 14/82/68
f 14/82/31 12/80/31 10/78/31
f 10/78/31 8/76/31 6/64/31
f 6/64/31 2/74/31 62/128/31
f 62/128/31 58/124/31 54/120/31
f 54/120/31 50/116/31 46/114/31
f 46/114/31 42/108/31 38/62/31
f 38/62/31 34/101/31 30/97/31
f 30/97/31 26/93/31 22/63/31
f 22/63/31 18/86/31 14/82/31
f 14/82/31 10/78/31 6/64/31
f 6/64/31 62/128/31 54/120/31
f 54/120/31 46/114/31 38/62/31
f 38/62/31 30/97/31 22/63/31
f 22/63/31 14/82/31 6/64/31
f 6/64/31 54/120/31 38/62/31
f 95/65/32 96/67/32 63/66/32
f 96/67/33 66/133/33 1/68/33
f 63/71/34 1/134/34 3/135/34
f 3/135/34 5/136/34 7/137/34
f 7/137/34 9/138/34 11/139/34
f 11/139/34 13/140/34 15/141/34
f 15/141/34 17/142/34 19/143/34
f 19/143/34 21/144/34 23/145/34
f 23/145/34 25/146/34 27/147/34
f 27/147/34 29/148/34 31/69/34
f 31/69/34 33/149/34 35/150/34
f 35/150/34 37/151/34 39/152/34
f 39/152/34 41/153/34 43/154/34
f 43/154/34 45/155/34 47/70/34
f 47/70/34 49/156/34 51/157/34
f 51/157/34 53/158/34 55/159/34
f 55/159/34 57/160/34 59/161/34
f 59/161/34 61/162/34 63/71/34
f 63/71/34 3/135/34 7/137/34
f 7/137/34 11/139/34 15/141/34
f 15/141/34 19/143/34 23/145/34
f 23/145/34 27/147/34 31/69/34
f 31/69/34 35/150/34 39/152/34
f 39/152/34 43/154/34 47/70/34
f 47/70/34 51/157/34 55/159/34
f 55/159/34 59/161/34 63/71/34
f 63/71/34 7/137/34 15/141/34
f 15/141/34 23/145/34 31/69/34
f 31/69/34 39/152/34 47/70/34
f 47/70/34 55/159/34 63/71/34
f 63/71/34 15/141/34 31/69/34
f 4/72/35 65/75/35 66/73/35
f 6/64/36 67/77/36 65/75/36
f 8/76/37 68/79/37 67/77/37
f 10/78/38 69/81/38 68/79/38
f 12/80/39 70/83/39 69/81/39
f 14/82/40 71/85/40 70/83/40
f 16/84/41 72/87/41 71/85/41
f 18/86/42 73/89/42 72/87/42
f 18/86/43 20/90/43 74/88/43
f 22/63/44 75/92/44 74/88/44
f 24/91/45 76/94/45 75/92/45
f 26/93/46 77/96/46 76/94/46
f 28/95/47 78/98/47 77/96/47
f 30/97/48 79/100/48 78/98/48
f 32/99/49 80/102/49 79/100/49
f 34/101/50 81/104/50 80/102/50
f 34/101/51 36/105/51 82/103/51
f 38/62/52 83/107/52 82/103/52
f 38/62/53 40/109/53 84/106/53
f 42/108/54 85/111/54 84/106/54
f 42/108/55 44/112/55 86/110/55
f 44/112/56 46/114/56 87/113/56
f 46/114/57 48/117/57 88/115/57
f 50/116/58 89/119/58 88/115/58
f 52/118/59 90/121/59 89/119/59
f 54/120/60 91/123/60 90/121/60
f 56/122/61 92/125/61 91/123/61
f 58/124/62 93/127/62 92/125/62
f 58/124/63 60/129/63 94/126/63
f 62/128/64 95/131/64 94/126/64
f 62/128/65 64/132/65 96/130/65
f 2/74/66 66/73/66 96/130/66
